<svg width="268" height="80" viewBox="0 0 268 80" fill="none" xmlns="http://www.w3.org/2000/svg">
<path d="M105.751 13C104.328 13 102.992 12.3706 101.941 11.411C96.4329 6.38248 88.4009 4.09192 80.655 5.49544C80.4537 5.53191 80.2469 5.52505 80.049 5.47319C72.1579 3.40469 63.0086 3.1778 54.6029 4.39418C54.1635 4.45776 53.7205 4.30006 53.4013 3.9914C45.0757 -4.06086 30.0223 0.742325 28.2638 12.3874C28.1953 12.8407 27.9259 13.2441 27.5202 13.4576C13.4308 20.8729 -0.0213583 37.0008 3.70954 52.5409C3.81395 52.9759 3.70761 53.4404 3.43053 53.7915C-4.68834 64.0798 2.44848 80.1661 15.9802 79.9946C20.3563 79.6918 24.9537 78.1034 29.3538 76.5832C30.1483 76.3088 30.9363 76.0365 31.7154 75.7745C31.9405 75.6988 32.1812 75.6856 32.4144 75.7309C33.9769 76.0343 35.6004 76.2122 37.2325 76.3911C37.7254 76.4451 38.219 76.4992 38.712 76.5569C38.9071 76.5797 39.0937 76.6461 39.2622 76.7471C44.1199 79.6557 51.1084 80.6996 57.2376 79.5296C66.2536 77.7548 75.9021 74.6485 82.6795 68.4988C83.6942 67.5781 84.9903 67 86.3604 67H252C260.837 67 268 59.8366 268 51V29C268 20.1634 260.837 13 252 13H105.751Z" fill="#F7B413"/>
<path d="M109.378 58.2803V22.2607H128.983C129.24 22.2607 129.549 22.3637 129.755 22.5695L134.797 27.6122C135.003 27.8181 135.106 28.1268 135.106 28.3841V38.2637C135.106 38.521 135.003 38.8297 134.797 39.0356L129.806 44.0269C129.549 44.2841 129.292 44.3871 128.983 44.3871H126.101L134.797 53.0832C135.003 53.289 135.106 53.5978 135.106 53.8551V58.2803H129.961V55.5531L120.956 46.5482V44.3871H114.524V58.2803H109.378ZM114.524 39.2414H126.873L129.961 36.1026V30.4938L126.873 27.4064H114.524V39.2414Z" fill="#E8362F"/>
<path d="M140.232 35.588C140.232 35.3307 140.335 35.022 140.54 34.8161L150.523 24.8336V22.2607H155.669V24.8336L165.651 34.8161C165.857 35.022 165.96 35.3307 165.96 35.588V58.2803H160.814V47.989H145.377V58.2803H140.232V35.588ZM145.377 42.8434H160.814V37.6977L153.096 29.9792L145.377 37.6977V42.8434Z" fill="#E8362F"/>
<path d="M171.086 58.2803V22.2607H188.632C188.941 22.2607 189.198 22.3637 189.404 22.5695L196.505 29.6705C196.711 29.8763 196.814 30.1336 196.814 30.4423V50.0987C196.814 50.4075 196.711 50.6648 196.505 50.8706L189.404 57.9716C189.198 58.1774 188.941 58.2803 188.632 58.2803H171.086ZM176.231 53.1347H186.523L191.668 47.989V32.5521L186.523 27.4064H176.231V53.1347Z" fill="#E8362F"/>
<path d="M201.939 58.2803V53.1347H212.231V27.4064H201.939V22.2607H227.668V27.4064H217.376V53.1347H227.668V58.2803H201.939Z" fill="#E8362F"/>
<path d="M238.917 58.2803C238.608 58.2803 238.351 58.1774 238.145 57.9716L233.102 52.9288C232.896 52.723 232.793 52.4657 232.793 52.157V28.3841C232.793 28.0753 232.896 27.8181 233.102 27.6122L238.145 22.5695C238.351 22.3637 238.608 22.2607 238.917 22.2607H252.398C252.707 22.2607 252.964 22.3637 253.17 22.5695L258.213 27.6122C258.419 27.8181 258.521 28.0753 258.521 28.3841V52.157C258.521 52.4657 258.419 52.723 258.213 52.9288L253.17 57.9716C252.964 58.1774 252.707 58.2803 252.398 58.2803H238.917ZM237.939 50.0473L241.026 53.1347H250.288L253.376 50.0473V30.4938L250.288 27.4064H241.026L237.939 30.4938V50.0473Z" fill="#E8362F"/>
<path fill-rule="evenodd" clip-rule="evenodd" d="M100.53 24.0732C98.3502 14.9836 88.3874 11.4924 80.0564 13.7608C71.6527 11.143 61.0044 10.8366 49.9232 13.3845C47.5736 3.64993 32.8578 8.33177 36.7854 17.768C22.4353 23.9737 5.8404 38.847 13.0074 54.6126C11.5987 56.5396 9.85941 58.2731 8.84054 60.4555C6.38344 65.9113 10.0207 71.7918 16.0909 71.8456C20.2389 71.2167 24.4166 69.6095 28.4356 68.3544C29.312 68.0426 30.0459 67.5696 30.6373 66.9891C34.0326 67.8706 37.7452 68.3947 41.6701 68.5318C45.6757 71.7273 51.0845 72.3616 56.0068 71.4828C63.2249 70.3002 78.4622 65.3039 80.6075 57.7275C91.8553 50.3715 98.4954 40.3736 97.3744 31.0556C99.9955 29.779 101.35 26.9946 100.533 24.0732H100.53ZM13.3838 51.0784C11.9751 45.8214 13.4644 40.0484 17.4189 34.5441C18.1179 39.2851 22.6799 40.8385 26.6694 39.0056C27.0699 39.1964 27.164 39.9785 27.4651 40.4569C27.7124 40.8493 27.6479 41.1127 27.3898 41.4621C25.7311 43.7197 24.102 45.9988 22.4353 48.251C22.2874 48.4499 21.9111 48.6111 21.6611 48.5869C18.1555 48.0145 15.9511 50.5865 14.1257 53.1881C13.83 52.5028 13.58 51.8013 13.3865 51.0784H13.3838ZM31.9761 60.8371C30.2744 56.0316 25.7285 57.5367 26.3441 56.3273C27.4463 47.5414 22.0697 55.4081 30.6938 43.6337C30.8255 43.4536 31.1965 43.3219 31.4277 43.3568C33.9305 43.7412 35.9467 42.9322 37.4844 40.938C41.6728 36.2588 44.8665 28.677 37.8661 24.8768C33.71 22.5546 29.4544 24.5704 25.5645 26.2824C29.0216 23.6001 33.081 21.1786 37.6161 19.1629C41.2588 24.2532 50.3022 21.4312 50.0818 15.0024C59.9102 12.7126 69.3462 12.7314 77.0696 14.61C70.1284 16.8596 63.9964 20.6464 58.2327 25.0353C54.3374 28.2739 57.4101 31.0798 56.0794 32.6252C51.0308 37.2076 47.5118 43.1606 43.7589 48.5708C36.5543 49.4631 36.1537 62.4443 39.9523 66.8332C37.0301 66.637 34.2531 66.2177 31.6669 65.5888C32.3847 64.1993 32.5218 62.5115 31.9734 60.8398L31.9761 60.8371ZM88.2315 49.3717C86.054 51.6669 83.4571 53.852 80.508 55.8543C78.9595 49.6109 72.4565 50.1914 68.451 53.9944C64.5825 56.5772 60.507 58.7354 55.8831 59.5471C43.8503 61.1435 54.1357 55.3705 48.5763 50.2344C47.5091 47.5576 56.7837 37.7263 58.9612 35.4042C59.6683 34.5522 60.5662 35.4391 61.4533 35.4149C63.4507 35.681 65.0691 34.829 66.6095 33.6814C70.2225 30.9938 74.0157 28.6072 78.1477 26.793C81.051 25.6642 87.8766 23.0787 89.0595 27.4058C90.0219 30.3783 92.9521 32.1575 95.8071 31.5877C96.369 37.3849 93.6645 43.639 88.2288 49.369L88.2315 49.3717Z" fill="#E8362F"/>
</svg>
